<?xml version="1.0" standalone="no"?>
<!DOCTYPE svg PUBLIC "-//W3C//DTD SVG 20010904//EN"
 "http://www.w3.org/TR/2001/REC-SVG-20010904/DTD/svg10.dtd">
<svg version="1.0" xmlns="http://www.w3.org/2000/svg"
 width="512.000000pt" height="512.000000pt" viewBox="0 0 512.000000 512.000000"
 preserveAspectRatio="xMidYMid meet">

<g transform="translate(0.000000,512.000000) scale(0.100000,-0.100000)"
fill="#000000" stroke="none">
<path d="M2375 5114 c-362 -37 -641 -115 -937 -264 -182 -91 -388 -228 -531
-352 l-38 -33 846 -845 845 -845 181 180 c99 99 243 246 320 327 l140 147 -59
78 c-212 279 -332 561 -394 923 -19 115 -16 432 6 563 9 60 15 111 12 114 -7
7 -334 13 -391 7z"/>
<path d="M3075 5060 c-2 -4 -11 -45 -19 -92 -59 -334 -7 -686 146 -993 51
-101 130 -229 185 -297 l30 -36 417 417 417 417 -88 70 c-147 117 -166 131
-279 200 -190 115 -405 211 -599 267 -148 43 -205 56 -210 47z"/>
<path d="M4048 3843 l-417 -418 62 -46 c367 -275 835 -390 1275 -313 47 8 88
17 93 19 17 11 -72 303 -146 476 -91 212 -260 480 -417 662 l-33 37 -417 -417z"/>
<path d="M576 4156 c-304 -377 -487 -806 -558 -1301 -13 -90 -18 -508 -7 -519
3 -4 46 1 95 10 121 22 403 30 534 15 366 -42 737 -193 999 -408 l55 -44 325
325 326 326 -846 846 -846 846 -77 -96z"/>
<path d="M3164 2957 c-137 -139 -281 -285 -319 -325 l-70 -72 475 -476 c261
-261 644 -642 851 -845 l377 -369 74 92 c327 408 512 874 558 1403 11 119 9
410 -2 420 -1 1 -48 -6 -103 -16 -296 -55 -659 -24 -965 83 -186 65 -426 197
-560 307 -25 21 -50 40 -56 44 -5 3 -123 -107 -260 -246z"/>
<path d="M2231 2016 l-325 -325 46 -58 c200 -255 337 -570 394 -908 25 -142
25 -452 0 -598 -9 -60 -15 -112 -11 -115 12 -12 437 -7 530 6 495 71 923 254
1302 559 l96 77 -847 843 c-467 464 -851 843 -855 843 -3 0 -152 -146 -330
-324z"/>
<path d="M240 2060 c-127 -16 -180 -30 -180 -47 0 -20 25 -119 56 -218 100
-323 269 -628 501 -903 l28 -32 415 415 415 416 -30 25 c-131 112 -382 239
-575 293 -180 49 -458 72 -630 51z"/>
<path d="M1272 1057 l-413 -413 98 -79 c297 -238 622 -399 995 -493 l77 -20
10 52 c76 378 9 797 -181 1131 -53 94 -153 235 -166 235 -4 0 -193 -186 -420
-413z"/>
</g>
</svg>
