<?xml version="1.0" standalone="no"?>
<!DOCTYPE svg PUBLIC "-//W3C//DTD SVG 20010904//EN"
 "http://www.w3.org/TR/2001/REC-SVG-20010904/DTD/svg10.dtd">
<svg version="1.0" xmlns="http://www.w3.org/2000/svg"
 width="512.000000pt" height="512.000000pt" viewBox="0 0 512.000000 512.000000"
 preserveAspectRatio="xMidYMid meet">

<g transform="translate(0.000000,512.000000) scale(0.100000,-0.100000)"
fill="#000000" stroke="none">
<path d="M1790 5105 c-457 -81 -801 -434 -869 -892 -7 -43 -11 -244 -11 -495
l0 -423 802 0 c803 0 803 0 874 -22 122 -39 264 -146 322 -245 l16 -28 582 0
c353 0 602 4 635 10 181 35 326 180 360 363 6 38 9 243 6 595 -4 576 -2 562
-57 692 -73 172 -229 328 -400 400 -137 57 -70 54 -1170 56 -809 2 -1030 0
-1090 -11z"/>
<path d="M955 2986 c-170 -43 -303 -185 -336 -359 -6 -38 -9 -240 -6 -585 4
-564 3 -552 57 -682 72 -171 228 -327 400 -400 138 -58 29 -54 1584 -57 949
-2 1448 0 1485 7 181 33 327 178 361 359 6 34 10 340 10 818 l0 764 -42 -26
c-60 -37 -163 -84 -228 -103 -48 -14 -133 -17 -642 -20 l-588 -3 0 -27 c-1
-58 -31 -170 -66 -242 -51 -103 -161 -213 -264 -264 -118 -58 -177 -66 -483
-66 -248 0 -271 -1 -307 -20 -45 -23 -80 -80 -80 -130 0 -76 -74 -150 -150
-150 -53 0 -108 36 -132 85 -20 41 -21 51 -11 119 25 174 127 303 292 368 52
20 77 22 366 27 289 6 313 8 356 28 60 27 125 92 152 152 30 64 30 178 0 242
-27 60 -92 125 -152 153 -46 21 -52 21 -786 23 -565 1 -752 -1 -790 -11z"/>
<path d="M1212 348 c4 -365 -15 -348 397 -348 155 0 281 2 281 5 0 3 -9 24
-21 46 -29 58 -59 183 -59 249 0 66 30 191 59 249 12 22 21 43 21 46 0 3 -153
5 -340 5 l-341 0 3 -252z"/>
<path d="M2315 582 c-256 -88 -272 -442 -26 -556 46 -21 50 -21 923 -24 866
-2 879 -2 918 18 26 13 47 34 60 60 18 36 20 58 20 280 l0 240 -922 0 c-849
-1 -927 -2 -973 -18z"/>
</g>
</svg>
