<?xml version="1.0" standalone="no"?>
<!DOCTYPE svg PUBLIC "-//W3C//DTD SVG 20010904//EN"
 "http://www.w3.org/TR/2001/REC-SVG-20010904/DTD/svg10.dtd">
<svg version="1.0" xmlns="http://www.w3.org/2000/svg"
 width="512.000000pt" height="512.000000pt" viewBox="0 0 512.000000 512.000000"
 preserveAspectRatio="xMidYMid meet">

<g transform="translate(0.000000,512.000000) scale(0.100000,-0.100000)"
fill="#000000" stroke="none">
<path d="M1271 4500 c-229 -48 -391 -279 -353 -506 31 -190 175 -339 361 -374
30 -5 94 -10 142 -10 l89 0 0 -210 0 -210 -102 -256 c-100 -250 -103 -255
-128 -250 -97 22 -246 29 -343 17 -437 -54 -790 -362 -904 -789 -23 -85 -26
-117 -26 -252 0 -135 3 -167 26 -252 93 -347 350 -626 683 -738 274 -93 554
-75 808 52 98 49 142 79 225 153 172 153 295 365 332 567 10 58 15 68 33 68
15 0 29 -15 51 -57 63 -122 187 -211 323 -235 230 -39 470 127 510 353 8 44 8
44 21 -41 7 -47 21 -116 33 -155 149 -513 653 -835 1173 -750 418 68 752 371
862 783 23 85 26 117 26 252 0 135 -3 167 -26 252 -95 356 -362 638 -707 746
-189 59 -373 66 -556 20 l-91 -23 -312 622 c-171 343 -311 625 -311 628 0 3
241 5 535 5 294 0 535 -3 535 -6 0 -3 -14 -33 -32 -66 -69 -129 -235 -228
-384 -228 -80 0 -154 -72 -154 -150 0 -51 35 -107 82 -131 37 -19 53 -21 123
-15 187 15 351 92 481 228 128 133 196 283 210 463 6 70 4 86 -15 123 -14 28
-35 48 -61 62 -38 20 -57 20 -821 20 l-781 0 -39 -22 c-44 -24 -79 -85 -79
-135 0 -20 62 -156 175 -382 96 -194 175 -354 175 -356 0 -3 -281 -5 -625 -5
l-625 0 0 150 0 150 240 0 c222 0 244 2 280 20 26 14 47 34 61 62 19 37 21 53
15 123 -25 319 -241 578 -561 673 -59 17 -503 26 -574 12z m1487 -1940 c-178
-446 -180 -450 -209 -450 -147 0 -312 -104 -384 -243 -22 -42 -36 -57 -51 -57
-18 0 -23 8 -29 47 -17 112 -80 266 -160 388 -50 77 -192 220 -272 274 -35 23
-63 46 -63 51 0 6 39 107 86 225 l86 215 588 0 588 0 -180 -450z m596 173
l106 -212 -72 -58 c-178 -145 -325 -398 -358 -620 -20 -133 -21 -135 -34 -78
-16 65 -38 107 -93 178 l-45 58 183 457 c185 465 198 496 204 490 1 -1 50 -98
109 -215z m-2168 -335 c3 -3 -56 -158 -131 -344 -74 -187 -138 -356 -141 -376
-10 -56 26 -121 80 -147 40 -20 59 -21 419 -21 322 0 377 -2 377 -14 0 -28
-52 -158 -87 -219 -47 -81 -181 -214 -263 -261 -427 -249 -962 -35 -1111 444
-34 108 -34 292 0 400 88 284 317 489 604 540 52 9 243 8 253 -2z m2993 1
c291 -47 522 -251 612 -539 34 -108 34 -292 0 -400 -75 -242 -248 -424 -478
-505 -283 -98 -584 -27 -789 187 -240 250 -281 607 -103 905 36 59 145 181
167 185 8 2 78 -125 185 -337 162 -320 174 -341 212 -362 50 -28 94 -29 145
-3 46 23 80 81 80 134 0 24 -49 133 -170 375 -113 227 -166 343 -157 346 60
22 205 29 296 14z m-2594 -212 c81 -82 99 -105 143 -197 28 -58 54 -122 58
-142 l6 -38 -255 0 -255 0 85 213 c47 116 89 222 94 235 5 12 14 22 20 22 6 0
53 -42 104 -93z"/>
</g>
</svg>
