<?xml version="1.0" standalone="no"?>
<!DOCTYPE svg PUBLIC "-//W3C//DTD SVG 20010904//EN"
 "http://www.w3.org/TR/2001/REC-SVG-20010904/DTD/svg10.dtd">
<svg version="1.0" xmlns="http://www.w3.org/2000/svg"
 width="512.000000pt" height="512.000000pt" viewBox="0 0 512.000000 512.000000"
 preserveAspectRatio="xMidYMid meet">

<g transform="translate(0.000000,512.000000) scale(0.100000,-0.100000)"
fill="#000000" stroke="none">
<path d="M2232 4617 l-263 -505 157 -314 c86 -172 157 -315 160 -317 2 -2 185
-38 406 -81 l403 -78 185 179 c102 97 222 215 268 261 l82 84 -84 553 c-47
305 -89 558 -93 562 -12 12 -227 75 -338 99 -156 33 -287 49 -460 56 l-160 6
-263 -505z"/>
<path d="M1985 5053 c-397 -91 -769 -276 -1082 -538 -39 -33 -69 -63 -65 -66
8 -8 882 -163 886 -158 8 10 406 776 406 782 0 11 -28 7 -145 -20z"/>
<path d="M3790 4798 c0 -14 131 -872 134 -874 2 -2 869 -134 879 -134 10 0
-31 73 -111 193 -186 281 -434 529 -708 709 -141 93 -194 121 -194 106z"/>
<path d="M513 4106 c-169 -224 -281 -435 -373 -703 l-39 -112 276 -288 c152
-158 332 -345 401 -415 l124 -127 360 52 359 52 195 381 c107 210 194 387 194
394 0 7 -70 155 -156 329 l-156 317 -431 77 c-238 43 -491 88 -563 101 l-130
23 -61 -81z"/>
<path d="M3574 3368 l-265 -263 61 -415 c34 -228 67 -420 73 -426 7 -6 158
-89 336 -183 l323 -171 502 242 c275 132 503 243 505 244 2 2 6 48 9 101 9
188 -27 493 -84 718 -25 98 -68 232 -78 242 -4 4 -1085 173 -1109 173 -4 0
-127 -118 -273 -262z"/>
<path d="M2085 2810 l-179 -359 268 -263 c148 -145 272 -264 276 -266 8 -3
658 326 665 338 5 8 -93 762 -101 769 -5 5 -704 140 -729 141 -17 0 -52 -64
-200 -360z"/>
<path d="M27 2917 c-3 -9 -11 -90 -17 -182 -23 -337 26 -713 134 -1021 47
-133 92 -238 99 -228 2 5 98 184 211 398 l207 389 -44 46 c-24 25 -146 154
-272 286 -332 349 -311 329 -318 312z"/>
<path d="M1298 2216 c-191 -28 -351 -56 -356 -61 -5 -6 -127 -232 -271 -503
l-262 -493 63 -87 c151 -209 340 -404 527 -544 l102 -77 92 44 c161 75 931
455 938 463 4 4 35 167 69 362 l61 354 -298 298 c-164 164 -302 297 -308 297
-5 -1 -166 -24 -357 -53z"/>
<path d="M4666 1850 c-214 -104 -392 -193 -396 -197 -4 -4 17 -165 45 -358 29
-192 58 -390 65 -440 l13 -90 50 55 c295 325 497 701 602 1120 9 36 18 73 21
83 3 9 2 17 -3 16 -4 0 -183 -85 -397 -189z"/>
<path d="M2920 1819 c-195 -100 -357 -183 -359 -185 -2 -2 -32 -169 -67 -371
l-63 -368 33 -35 c304 -324 734 -766 748 -768 34 -6 322 99 473 172 227 110
434 244 435 281 0 25 -157 1096 -162 1100 -5 5 -655 345 -670 350 -7 3 -173
-77 -368 -176z"/>
<path d="M1823 466 c-216 -107 -393 -197 -393 -199 0 -10 243 -107 363 -145
232 -75 432 -109 687 -118 150 -5 342 5 357 19 7 8 -596 637 -611 637 -6 0
-188 -88 -403 -194z"/>
</g>
</svg>
