<?xml version="1.0" standalone="no"?>
<!DOCTYPE svg PUBLIC "-//W3C//DTD SVG 20010904//EN"
 "http://www.w3.org/TR/2001/REC-SVG-20010904/DTD/svg10.dtd">
<svg version="1.0" xmlns="http://www.w3.org/2000/svg"
 width="512.000000pt" height="512.000000pt" viewBox="0 0 512.000000 512.000000"
 preserveAspectRatio="xMidYMid meet">

<g transform="translate(0.000000,512.000000) scale(0.100000,-0.100000)"
fill="#000000" stroke="none">
<path d="M3093 5102 c-95 -34 -169 -112 -194 -207 -17 -62 -6 -155 25 -212 18
-32 108 -130 252 -274 l224 -224 -107 -107 -108 -108 108 -108 109 -107 164
170 c226 233 274 316 275 478 0 91 -20 163 -66 238 -45 72 -402 422 -458 449
-66 31 -157 36 -224 12z"/>
<path d="M4365 5103 c-170 -61 -248 -244 -175 -410 15 -35 79 -106 250 -278
l230 -231 -420 -419 c-231 -231 -420 -425 -420 -430 0 -13 192 -205 205 -205
6 0 226 217 491 483 493 495 530 537 568 650 38 112 30 220 -24 336 -26 55
-60 94 -233 267 -222 223 -251 243 -361 251 -42 2 -77 -2 -111 -14z"/>
<path d="M2257 4200 c-87 -15 -170 -63 -259 -148 l-83 -80 75 -79 c83 -86 120
-145 144 -227 33 -113 11 -256 -55 -361 -17 -27 -108 -128 -202 -223 l-171
-173 742 -742 742 -742 366 365 c201 201 385 391 409 423 108 142 124 317 43
482 -26 52 -122 152 -716 747 -639 639 -692 689 -753 718 -97 45 -181 57 -282
40z"/>
<path d="M1425 3890 c-57 -28 -805 -780 -835 -839 -60 -119 -37 -263 57 -353
56 -54 125 -82 203 -83 129 0 121 -7 568 439 222 220 410 413 418 428 17 32
18 86 3 124 -15 41 -237 263 -284 285 -51 24 -81 24 -130 -1z"/>
<path d="M1347 2555 c-117 -114 -150 -140 -220 -175 -88 -43 -191 -70 -272
-70 -119 0 -269 53 -373 131 l-53 40 -43 -35 c-24 -19 -84 -75 -134 -123 -70
-68 -98 -103 -122 -154 -65 -140 -61 -283 13 -419 23 -42 186 -211 711 -736
615 -614 687 -683 746 -712 141 -69 304 -63 433 15 43 26 193 165 482 447 231
225 429 417 440 428 19 18 10 27 -720 758 -407 407 -742 740 -745 740 -3 -1
-67 -61 -143 -135z"/>
<path d="M3920 1735 l-104 -104 33 -66 c123 -248 116 -509 -21 -739 -199 -336
-650 -458 -994 -271 l-61 33 -104 -105 -104 -104 30 -25 c44 -35 175 -102 257
-130 251 -85 531 -71 781 40 207 91 428 320 517 533 63 150 74 210 74 408 1
158 -2 190 -22 265 -29 104 -63 185 -112 270 -67 114 -51 114 -170 -5z"/>
<path d="M82 1212 c-75 -92 -91 -134 -73 -194 11 -37 77 -107 469 -501 252
-252 474 -469 494 -483 49 -34 105 -41 151 -19 20 9 62 48 93 87 l57 69 -559
560 c-307 307 -561 559 -564 558 -3 0 -33 -35 -68 -77z"/>
</g>
</svg>
