<?xml version="1.0" standalone="no"?>
<!DOCTYPE svg PUBLIC "-//W3C//DTD SVG 20010904//EN"
 "http://www.w3.org/TR/2001/REC-SVG-20010904/DTD/svg10.dtd">
<svg version="1.0" xmlns="http://www.w3.org/2000/svg"
 width="512.000000pt" height="512.000000pt" viewBox="0 0 512.000000 512.000000"
 preserveAspectRatio="xMidYMid meet">

<g transform="translate(0.000000,512.000000) scale(0.100000,-0.100000)"
fill="#000000" stroke="none">
<path d="M2815 5109 c-368 -35 -774 -196 -1065 -422 -212 -165 -392 -371 -527
-600 l-46 -79 1420 -1420 1420 -1420 49 28 c204 117 409 288 555 462 454 542
608 1252 418 1927 -138 493 -460 925 -900 1208 -382 246 -859 360 -1324 316z
m1280 -1614 c201 -42 378 -196 445 -388 31 -86 38 -249 16 -337 -114 -454
-673 -613 -1001 -285 -185 185 -231 465 -115 696 120 237 394 369 655 314z"/>
<path d="M3895 3197 c-86 -29 -152 -83 -191 -157 -29 -53 -27 -210 3 -265 27
-51 86 -107 143 -137 64 -33 186 -33 250 1 58 30 116 86 142 136 29 56 36 167
14 233 -47 141 -225 234 -361 189z"/>
<path d="M1018 3617 c-67 -225 -91 -396 -90 -632 1 -246 25 -388 109 -650 36
-110 46 -155 47 -212 0 -40 2 -73 3 -73 2 0 67 48 145 107 204 152 306 193
474 193 193 -1 330 -56 460 -185 66 -65 89 -98 122 -166 53 -112 67 -173 66
-299 0 -176 -35 -260 -199 -479 -58 -78 -105 -142 -105 -144 0 -1 37 -2 83 -3
68 0 103 -7 207 -42 69 -22 161 -50 205 -61 274 -67 635 -68 930 -2 87 19 221
58 239 68 7 5 -2652 2673 -2664 2673 -3 0 -17 -42 -32 -93z"/>
<path d="M1600 2036 c-19 -7 -49 -22 -66 -32 -50 -32 -1405 -1096 -1447 -1138
-57 -56 -81 -116 -81 -206 -1 -122 12 -142 262 -392 250 -250 270 -263 392
-262 95 0 154 25 215 91 100 107 1129 1420 1154 1473 21 46 26 69 26 140 0
104 -30 176 -98 242 -72 70 -127 92 -232 95 -57 2 -103 -2 -125 -11z"/>
</g>
</svg>
