<?xml version="1.0" standalone="no"?>
<!DOCTYPE svg PUBLIC "-//W3C//DTD SVG 20010904//EN"
 "http://www.w3.org/TR/2001/REC-SVG-20010904/DTD/svg10.dtd">
<svg version="1.0" xmlns="http://www.w3.org/2000/svg"
 width="512.000000pt" height="512.000000pt" viewBox="0 0 512.000000 512.000000"
 preserveAspectRatio="xMidYMid meet">

<g transform="translate(0.000000,512.000000) scale(0.100000,-0.100000)"
fill="#000000" stroke="none">
<path d="M3935 4866 c-219 -72 -350 -277 -316 -496 23 -150 113 -272 251 -339
73 -35 78 -36 190 -36 112 0 117 1 190 36 136 66 227 187 252 335 32 193 -71
386 -252 473 -69 33 -84 36 -175 38 -63 2 -115 -2 -140 -11z"/>
<path d="M2565 4651 c-74 -19 -127 -67 -561 -503 -423 -424 -453 -457 -473
-511 -11 -32 -21 -78 -21 -102 0 -99 74 -220 165 -268 58 -32 212 -32 270 0
22 12 193 175 380 362 187 188 343 341 347 341 5 0 55 -34 113 -76 l106 -77
172 170 c113 112 192 181 230 203 48 27 56 35 45 45 -28 26 -535 373 -576 394
-47 24 -148 35 -197 22z"/>
<path d="M421 4430 c-76 -18 -125 -84 -118 -159 6 -51 31 -88 78 -116 33 -19
52 -20 449 -20 397 0 416 1 449 20 55 32 76 69 76 130 0 61 -21 98 -76 130
-32 19 -54 20 -429 22 -217 1 -410 -2 -429 -7z"/>
<path d="M3559 3979 c-25 -4 -63 -16 -85 -27 -23 -12 -298 -281 -680 -664
-608 -609 -643 -646 -663 -701 -27 -73 -27 -131 0 -204 20 -54 47 -84 385
-423 200 -201 364 -370 364 -375 0 -5 -197 -208 -439 -450 -411 -412 -440
-444 -460 -498 -11 -32 -21 -78 -21 -102 0 -99 74 -220 165 -268 58 -32 212
-32 270 0 23 12 286 268 606 590 535 536 568 571 588 626 27 73 27 131 0 204
-20 54 -47 84 -385 423 -200 201 -364 370 -364 375 0 6 105 115 234 244 l234
234 4 -124 c4 -142 22 -196 86 -262 48 -51 95 -74 173 -87 86 -13 1202 -13
1288 0 78 13 125 36 173 87 136 141 99 385 -73 473 -66 34 -153 40 -606 40
l-443 0 0 319 c0 367 -4 390 -77 471 -70 78 -171 114 -274 99z"/>
<path d="M121 3830 c-76 -18 -125 -84 -118 -159 6 -51 31 -88 78 -116 33 -19
52 -20 449 -20 397 0 416 1 449 20 55 32 76 69 76 130 0 61 -21 98 -76 130
-32 19 -54 20 -429 22 -217 1 -410 -2 -429 -7z"/>
<path d="M421 3230 c-76 -18 -125 -84 -118 -159 6 -51 31 -88 78 -116 33 -19
52 -20 449 -20 397 0 416 1 449 20 55 32 76 69 76 130 0 61 -21 98 -76 130
-32 19 -54 20 -429 22 -217 1 -410 -2 -429 -7z"/>
<path d="M1014 1508 c-773 -774 -813 -816 -833 -871 -12 -32 -21 -78 -21 -102
0 -99 74 -220 165 -268 58 -32 212 -32 270 0 23 12 373 355 819 802 l780 780
-136 139 c-114 118 -142 153 -177 222 -22 45 -41 89 -41 96 0 8 -3 14 -8 14
-4 0 -372 -366 -818 -812z"/>
</g>
</svg>
