<?xml version="1.0" standalone="no"?>
<!DOCTYPE svg PUBLIC "-//W3C//DTD SVG 20010904//EN"
 "http://www.w3.org/TR/2001/REC-SVG-20010904/DTD/svg10.dtd">
<svg version="1.0" xmlns="http://www.w3.org/2000/svg"
 width="512.000000pt" height="512.000000pt" viewBox="0 0 512.000000 512.000000"
 preserveAspectRatio="xMidYMid meet">
<metadata>
Created by potrace 1.16, written by Peter Selinger 2001-2019
</metadata>
<g transform="translate(0.000000,512.000000) scale(0.100000,-0.100000)"
fill="#000000" stroke="none">
<path d="M2445 4945 c-55 -23 -98 -63 -548 -512 -269 -269 -497 -504 -507
-525 -42 -79 -41 -207 1 -291 14 -26 139 -160 333 -355 l310 -312 -387 -388
c-213 -213 -387 -392 -387 -397 0 -6 25 -23 56 -38 31 -15 98 -57 150 -92 164
-112 245 -114 392 -8 156 113 275 170 446 216 69 18 108 21 266 21 171 0 193
-2 285 -28 132 -36 257 -96 394 -189 188 -128 243 -130 419 -13 l92 61 -836
836 -835 835 359 355 c236 232 367 369 381 396 42 84 43 211 2 292 -28 55
-100 115 -165 140 -75 28 -146 27 -221 -4z"/>
<path d="M3395 3914 c-90 -21 -117 -31 -166 -60 -142 -85 -219 -222 -219 -390
0 -401 484 -605 768 -322 94 93 137 207 130 340 -3 70 -9 93 -38 148 -75 143
-257 275 -395 285 -33 2 -69 2 -80 -1z"/>
<path d="M580 1964 c-125 -26 -235 -77 -355 -164 -44 -31 -98 -67 -120 -78
-82 -44 -105 -77 -105 -150 0 -95 57 -154 149 -154 57 0 102 21 228 108 163
112 248 144 385 144 134 0 238 -38 363 -130 87 -64 247 -143 340 -166 107 -28
315 -26 420 4 104 30 222 88 310 152 138 101 241 140 369 140 134 0 237 -37
361 -129 87 -65 247 -143 340 -167 107 -28 315 -26 420 4 104 30 222 88 310
152 138 101 243 140 377 140 136 0 231 -34 368 -132 95 -68 192 -118 230 -118
43 1 108 37 130 72 28 47 27 125 -2 168 -13 19 -49 50 -80 69 -31 20 -98 64
-149 98 -102 69 -210 115 -327 140 -95 19 -307 13 -397 -12 -94 -26 -210 -85
-332 -168 -160 -109 -282 -142 -430 -117 -89 15 -165 50 -290 136 -194 133
-306 169 -528 169 -223 0 -329 -36 -552 -188 -160 -109 -282 -142 -430 -117
-90 15 -161 48 -301 143 -120 80 -226 128 -343 152 -87 19 -272 18 -359 -1z"/>
<path d="M580 1364 c-125 -26 -235 -77 -355 -164 -44 -31 -98 -67 -120 -78
-82 -44 -105 -77 -105 -150 0 -95 57 -154 149 -154 57 0 102 21 228 108 163
112 248 144 385 144 134 0 238 -38 363 -130 87 -64 247 -143 340 -166 107 -28
315 -26 420 4 104 30 222 88 310 152 138 101 241 140 369 140 134 0 237 -37
361 -129 87 -65 247 -143 340 -167 107 -28 315 -26 420 4 104 30 222 88 310
152 138 101 243 140 377 140 136 0 231 -34 368 -132 95 -68 192 -118 230 -118
43 1 108 37 130 72 28 47 27 125 -2 168 -13 19 -49 50 -80 69 -31 20 -98 64
-149 98 -102 69 -210 115 -327 140 -95 19 -307 13 -397 -12 -94 -26 -210 -85
-332 -168 -160 -109 -282 -142 -430 -117 -89 15 -165 50 -290 136 -194 133
-306 169 -528 169 -223 0 -329 -36 -552 -188 -160 -109 -282 -142 -430 -117
-90 15 -161 48 -301 143 -120 80 -226 128 -343 152 -87 19 -272 18 -359 -1z"/>
<path d="M580 764 c-125 -26 -235 -77 -355 -164 -44 -31 -98 -67 -120 -78 -82
-44 -105 -77 -105 -150 0 -95 57 -154 149 -154 57 0 102 21 228 108 163 112
248 144 385 144 134 0 238 -38 363 -130 87 -64 247 -143 340 -166 107 -28 315
-26 420 4 104 30 222 88 310 152 138 101 241 140 369 140 134 0 237 -37 361
-129 87 -65 247 -143 340 -167 107 -28 315 -26 420 4 104 30 222 88 310 152
138 101 243 140 377 140 136 0 231 -34 368 -132 95 -68 192 -118 230 -118 43
1 108 37 130 72 28 47 27 125 -2 168 -13 19 -49 50 -80 69 -31 20 -98 64 -149
98 -102 69 -210 115 -327 140 -95 19 -307 13 -397 -12 -94 -26 -210 -85 -332
-168 -160 -109 -282 -142 -430 -117 -89 15 -165 50 -290 136 -194 133 -306
169 -528 169 -223 0 -329 -36 -552 -188 -160 -109 -282 -142 -430 -117 -90 15
-161 48 -301 143 -120 80 -226 128 -343 152 -87 19 -272 18 -359 -1z"/>
</g>
</svg>
