<?xml version="1.0" standalone="no"?>
<!DOCTYPE svg PUBLIC "-//W3C//DTD SVG 20010904//EN"
 "http://www.w3.org/TR/2001/REC-SVG-20010904/DTD/svg10.dtd">
<svg version="1.0" xmlns="http://www.w3.org/2000/svg"
 width="512.000000pt" height="512.000000pt" viewBox="0 0 512.000000 512.000000"
 preserveAspectRatio="xMidYMid meet">
<metadata>
Created by potrace 1.16, written by Peter Selinger 2001-2019
</metadata>
<g transform="translate(0.000000,512.000000) scale(0.100000,-0.100000)"
fill="#000000" stroke="none">
<path d="M3195 5105 c-649 -96 -1230 -469 -1609 -1033 -97 -145 -212 -378
-265 -537 -22 -66 -164 -626 -315 -1244 l-274 -1123 -340 -342 c-387 -388
-392 -394 -392 -526 0 -176 124 -300 300 -300 132 0 138 5 526 392 l342 340
1122 274 c617 151 1177 292 1244 314 559 187 1080 639 1345 1168 179 357 250
666 238 1044 -6 195 -19 286 -68 456 -167 580 -632 991 -1252 1109 -113 21
-481 26 -602 8z m493 -303 l42 -7 -280 -280 -280 -280 -210 210 c-115 115
-206 212 -202 216 15 13 141 58 242 87 91 26 220 51 340 66 44 5 291 -3 348
-12z m575 -226 c161 -107 297 -264 388 -449 l33 -67 -334 -335 -335 -335 -312
312 -313 313 337 337 337 337 74 -39 c41 -22 97 -56 125 -74z m-1555 -319
l242 -242 -315 -315 -315 -315 -245 245 -244 245 62 86 c135 188 297 351 479
482 44 31 83 57 87 57 3 0 115 -109 249 -243z m777 -777 l310 -310 -315 -315
-315 -315 -312 312 -313 313 312 312 c172 172 315 313 318 313 3 0 145 -140
315 -310z m1322 44 c9 -216 -17 -395 -87 -606 -65 -196 -32 -201 -274 41
l-208 208 273 278 c317 322 287 313 296 79z m-2914 -152 l207 -207 -279 -279
-279 -279 -9 59 c-13 91 -9 390 6 469 29 154 120 445 140 445 3 0 100 -93 214
-208z m2557 -986 c-127 -183 -298 -356 -488 -493 l-87 -62 -245 244 -245 245
315 315 315 315 244 -244 244 -244 -53 -76z m-1815 244 l310 -310 -337 -337
-337 -337 -48 23 c-92 44 -239 151 -321 233 -82 82 -189 229 -233 321 l-23 48
334 334 c184 184 337 335 340 335 3 0 145 -140 315 -310z m-1281 -470 c151
-352 455 -657 799 -801 39 -17 75 -34 79 -38 5 -4 -169 -50 -385 -103 l-392
-96 -6 62 c-16 153 -112 248 -265 264 l-62 7 96 392 c53 216 99 390 102 385 4
-4 19 -36 34 -72z m2026 -275 c112 -112 202 -206 199 -209 -14 -14 -203 -80
-302 -105 -157 -41 -294 -55 -462 -48 -77 4 -155 10 -174 14 l-33 8 276 273
c152 149 280 272 284 272 4 0 99 -92 212 -205z"/>
</g>
</svg>
