<?xml version="1.0" standalone="no"?>
<!DOCTYPE svg PUBLIC "-//W3C//DTD SVG 20010904//EN"
 "http://www.w3.org/TR/2001/REC-SVG-20010904/DTD/svg10.dtd">
<svg version="1.0" xmlns="http://www.w3.org/2000/svg"
 width="512.000000pt" height="512.000000pt" viewBox="0 0 512.000000 512.000000"
 preserveAspectRatio="xMidYMid meet">

<g transform="translate(0.000000,512.000000) scale(0.100000,-0.100000)"
fill="#000000" stroke="none">
<path d="M4724 5102 c-64 -23 -101 -52 -244 -196 l-115 -116 213 -213 213
-212 139 141 c165 167 185 200 185 314 0 91 -24 149 -85 210 -80 80 -203 109
-306 72z"/>
<path d="M3537 4910 c-85 -15 -166 -61 -258 -148 -83 -79 -87 -81 -103 -63
-58 64 -217 86 -311 43 -58 -27 -119 -82 -145 -133 -42 -82 -42 -195 0 -280
31 -62 1547 -1578 1609 -1609 204 -102 436 39 435 265 0 75 -28 157 -65 191
-18 16 -16 20 63 103 93 98 133 173 149 275 14 86 -1 178 -41 264 -29 62 -69
105 -508 544 -438 438 -482 480 -543 508 -97 45 -181 57 -282 40z"/>
<path d="M2973 3397 c-197 -201 -268 -349 -288 -597 -4 -50 -14 -98 -25 -120
-22 -43 -183 -202 -225 -223 -17 -8 -69 -18 -115 -22 -250 -20 -397 -92 -600
-291 l-115 -113 212 -213 213 -213 97 97 c54 53 112 103 129 112 18 8 79 20
137 25 259 25 384 90 603 313 202 206 262 326 284 571 6 60 17 123 26 140 9
18 59 76 112 130 l97 97 -210 210 c-115 116 -213 210 -216 210 -3 0 -56 -51
-116 -113z"/>
<path d="M590 2425 c-70 -14 -106 -34 -152 -82 -56 -58 -82 -124 -82 -208 0
-75 28 -157 65 -191 18 -16 16 -20 -63 -103 -93 -98 -133 -173 -149 -275 -14
-86 1 -178 41 -264 29 -62 69 -105 508 -544 439 -439 482 -479 544 -508 86
-40 178 -55 264 -41 102 16 177 56 275 149 83 79 87 81 103 63 58 -64 217 -86
311 -43 58 27 119 82 145 133 42 82 42 195 0 280 -15 31 -256 278 -793 816
-677 677 -779 775 -827 796 -69 31 -120 37 -190 22z"/>
<path d="M187 611 c-162 -164 -182 -198 -182 -311 0 -91 24 -149 85 -210 61
-61 119 -85 210 -85 114 0 147 20 314 185 l141 139 -210 211 c-115 115 -212
210 -216 210 -3 0 -67 -63 -142 -139z"/>
</g>
</svg>
