<?xml version="1.0" standalone="no"?>
<!DOCTYPE svg PUBLIC "-//W3C//DTD SVG 20010904//EN"
 "http://www.w3.org/TR/2001/REC-SVG-20010904/DTD/svg10.dtd">
<svg version="1.0" xmlns="http://www.w3.org/2000/svg"
 width="512.000000pt" height="512.000000pt" viewBox="0 0 512.000000 512.000000"
 preserveAspectRatio="xMidYMid meet">
<metadata>
Created by potrace 1.16, written by Peter Selinger 2001-2019
</metadata>
<g transform="translate(0.000000,512.000000) scale(0.100000,-0.100000)"
fill="#000000" stroke="none">
<path d="M2413 5020 c-188 -67 -303 -231 -303 -430 0 -259 191 -450 450 -450
259 0 450 191 450 450 0 201 -117 365 -307 431 -75 25 -216 25 -290 -1z"/>
<path d="M708 3839 c-145 -22 -250 -147 -250 -299 0 -129 10 -141 380 -513
376 -377 390 -387 521 -387 126 0 152 18 393 258 l208 206 2 -338 3 -339 298
-128 298 -128 297 128 297 127 3 339 2 339 208 -206 c241 -240 267 -258 393
-258 131 0 145 10 521 387 371 372 380 384 380 514 0 172 -129 301 -302 301
-121 0 -153 -22 -392 -259 l-207 -207 -179 175 c-180 177 -239 221 -348 262
-59 22 -62 22 -674 22 -612 0 -615 0 -674 -22 -109 -41 -168 -85 -348 -262
l-179 -175 -207 207 c-168 167 -217 211 -262 230 -64 29 -116 36 -182 26z"/>
<path d="M3710 2339 c-37 -6 -2094 -879 -2199 -933 -48 -25 -101 -84 -128
-143 -69 -150 1 -330 155 -401 47 -21 64 -24 136 -20 81 5 82 5 1155 466 590
254 1091 473 1112 488 109 75 153 243 96 368 -58 126 -190 197 -327 175z"/>
<path d="M1257 2326 c-122 -44 -197 -152 -197 -284 0 -160 61 -233 268 -321
l90 -39 376 162 c206 88 376 166 376 171 0 6 -165 81 -367 167 -360 154 -370
158 -438 157 -38 0 -87 -6 -108 -13z"/>
<path d="M357 2159 c-21 -18 -43 -43 -48 -57 -16 -41 -309 -1820 -309 -1874 0
-55 18 -93 58 -123 27 -20 43 -20 2502 -20 2459 0 2475 0 2502 20 40 30 58 68
58 122 0 52 -302 1832 -319 1874 -5 15 -27 40 -48 58 l-38 31 -192 0 -192 0
10 -32 c12 -44 11 -175 -2 -240 -6 -29 -29 -91 -51 -138 -53 -110 -152 -212
-260 -266 -40 -20 -75 -38 -77 -40 -2 -2 12 -34 32 -71 94 -181 88 -407 -16
-572 -71 -112 -191 -209 -310 -251 -87 -31 -249 -38 -337 -16 -35 9 -220 84
-411 166 l-347 150 -349 -149 c-191 -82 -376 -156 -409 -165 -78 -20 -212 -21
-289 -1 -194 49 -359 206 -421 400 -49 151 -28 336 51 469 l24 40 -82 45
c-154 87 -263 219 -302 368 -17 64 -20 221 -6 271 l10 32 -197 0 -197 0 -38
-31z"/>
<path d="M3301 1197 c-194 -84 -353 -156 -353 -161 0 -5 94 -49 209 -99 193
-83 214 -90 289 -95 72 -4 88 -1 136 20 115 53 178 151 178 278 0 59 -5 86
-25 125 -30 62 -48 85 -66 85 -8 0 -173 -69 -368 -153z"/>
</g>
</svg>
